<svg xmlns="http://www.w3.org/2000/svg" width="796" height="796" viewBox="0 0 796 796">
  <g id="Group_62" data-name="Group 62" transform="translate(-566 -145.977)">
    <rect id="Rectangle_13" data-name="Rectangle 13" width="796" height="796" transform="translate(566 145.977)" fill="#fff" opacity="0.003"/>
    <g id="Union_2" data-name="Union 2" transform="translate(670.185 205.944)" fill="#4d87cb">
      <path d="M 555.3612670898438 520.4583740234375 C 549.2509765625 520.4585571289062 543.2095336914062 518.835205078125 537.89013671875 515.763916015625 L 332.1443176269531 396.9770202636719 C 328.6027221679688 399.2932739257812 324.8432006835938 401.2980346679688 320.9548950195312 402.9428405761719 C 312.1878967285156 406.6509094238281 302.8781433105469 408.5310668945312 293.2839050292969 408.5310668945312 C 283.6891174316406 408.5310668945312 274.3790588378906 406.6509094238281 265.6122131347656 402.9429016113281 C 261.7239685058594 401.2981567382812 257.9646911621094 399.2935485839844 254.4230651855469 396.9772644042969 L 48.67759323120117 515.763916015625 C 43.35928726196289 518.8346557617188 37.31797790527344 520.4580688476562 31.20705604553223 520.4583740234375 C 25.16797828674316 520.458740234375 19.19628524780273 518.8888549804688 13.93743991851807 515.9185180664062 C 8.51597785949707 512.8563232421875 3.996439695358276 508.3730773925781 0.8675166368484497 502.9535217285156 L 0.596285879611969 502.4849243164062 C -1.767483353614807 498.390380859375 -3.257560253143311 493.9574584960938 -3.834790945053101 489.3052062988281 C -4.392021656036377 484.8138427734375 -4.078329563140869 480.3110656738281 -2.902252674102783 475.9219970703125 C -1.726175665855408 471.5328369140625 0.253439724445343 467.4765319824219 2.981824398040771 463.8656005859375 C 5.80782413482666 460.1253662109375 9.314901351928711 457.0315246582031 13.40543937683105 454.6700744628906 L 222.2748413085938 334.0784912109375 C 222.6643676757812 325.6740417480469 224.5148773193359 317.50830078125 227.7861328125 309.7742919921875 C 229.5667419433594 305.5625305175781 231.7720489501953 301.4990539550781 234.3404388427734 297.6974487304688 C 236.8861389160156 293.9299926757812 239.8062896728516 290.3912963867188 243.0200500488281 287.1795349121094 C 246.23828125 283.9613037109375 249.7769012451172 281.0415344238281 253.5367431640625 278.5021362304688 C 254.9843597412109 277.5240173339844 256.4823913574219 276.5914306640625 258.0107421875 275.7163391113281 L 258.0107421875 31.00052833557129 C 258.0107421875 26.27737426757812 258.9366760253906 21.69329833984375 260.7628173828125 17.37575912475586 C 262.5258178710938 13.20737457275391 265.0488891601562 9.464682579040527 268.2619018554688 6.25160551071167 C 271.4749755859375 3.038451671600342 275.2176818847656 0.5152978301048279 279.385986328125 -1.247779130935669 C 283.7035827636719 -3.074009895324707 288.2878112792969 -4.000010013580322 293.0111999511719 -4.000010013580322 L 293.5565795898438 -4.000010013580322 C 298.2797546386719 -4.000010013580322 302.8638305664062 -3.074009895324707 307.1814270019531 -1.247779130935669 C 311.3497619628906 0.5152978301048279 315.0924377441406 3.038451671600342 318.3055114746094 6.25160551071167 C 321.5186767578125 9.464682579040527 324.0418090820312 13.20737457275391 325.8049011230469 17.37568283081055 C 327.6311340332031 21.69329833984375 328.55712890625 26.27737426757812 328.55712890625 31.00052833557129 L 328.55712890625 275.7168884277344 C 330.0851135253906 276.5918273925781 331.5830383300781 277.5243835449219 333.0308227539062 278.5025939941406 C 336.7965087890625 281.0465393066406 340.33544921875 283.96630859375 343.5490417480469 287.1808471679688 C 346.7626647949219 290.394287109375 349.6822204589844 293.9326171875 352.2261962890625 297.6968994140625 C 354.7950439453125 301.5003051757812 357.0002136230469 305.5635375976562 358.7809753417969 309.7745971679688 C 362.0517272949219 317.5075073242188 363.9018859863281 325.6717834472656 364.2911987304688 334.0774230957031 L 573.1625366210938 454.6701354980469 C 577.2529296875 457.0315246582031 580.7599487304688 460.1253662109375 583.5861206054688 463.8656005859375 C 586.3145141601562 467.4764404296875 588.2943115234375 471.5328369140625 589.470458984375 475.9219970703125 C 590.6465454101562 480.3110656738281 590.9602661132812 484.8139038085938 590.4029541015625 489.3052978515625 C 589.8257446289062 493.95751953125 588.3355102539062 498.3905334472656 585.9738159179688 502.4809875488281 L 585.7012329101562 502.9532165527344 C 582.5722045898438 508.3726196289062 578.0524291992188 512.8555297851562 572.63037109375 515.9178466796875 C 567.3714599609375 518.8880615234375 561.3998413085938 520.4581298828125 555.3612670898438 520.4583740234375 Z M 283.2753295898438 345.1783752441406 C 283.603759765625 345.6008911132812 283.9613342285156 346.0060424804688 284.3421325683594 346.3868408203125 C 286.72998046875 348.7753601074219 289.9054260253906 350.0906066894531 293.2839050292969 350.0906066894531 C 296.6610412597656 350.0906066894531 299.8367614746094 348.775146484375 302.2261352539062 346.3864440917969 C 302.607177734375 346.0052490234375 302.9654235839844 345.5990295410156 303.2944641113281 345.17529296875 C 303.8775329589844 343.7732849121094 304.5578002929688 342.3964538574219 305.3205261230469 341.075439453125 L 305.4861755371094 340.7883605957031 C 305.7798767089844 339.7070922851562 305.9285278320312 338.5845031738281 305.9285278320312 337.445068359375 C 305.9285278320312 334.0673828125 304.6133728027344 330.8916931152344 302.2252807617188 328.5028991699219 C 299.8373718261719 326.1156921386719 296.6615905761719 324.800537109375 293.2839050292969 324.800537109375 C 289.9048156738281 324.800537109375 286.7293701171875 326.1153869628906 284.342529296875 328.5029907226562 C 281.9536743164062 330.8917541503906 280.6383666992188 334.0672912597656 280.6383666992188 337.445068359375 C 280.6383666992188 338.5832214355469 280.7867431640625 339.7046203613281 281.0798645019531 340.7847900390625 L 281.2456665039062 341.0711364746094 L 281.2470703125 341.0734558105469 L 281.2483520507812 341.0757446289062 C 282.0113830566406 342.3976135253906 282.6920471191406 343.7754516601562 283.2753295898438 345.1783752441406 Z" stroke="none"/>
      <path d="M 31.20673751831055 516.4583740234375 C 36.46532821655273 516.4580688476562 41.79635238647461 515.1182250976562 46.6776123046875 512.2998046875 L 254.5966186523438 392.25830078125 C 254.9868621826172 392.5343017578125 255.3798675537109 392.8059692382812 255.7755279541016 393.0732116699219 C 259.3620300292969 395.4969787597656 263.1960144042969 397.5777282714844 267.1704406738281 399.2588806152344 C 275.4414367675781 402.7572021484375 284.2272033691406 404.5311279296875 293.283935546875 404.5311279296875 C 302.3396911621094 404.5311279296875 311.1255187988281 402.7572021484375 319.3965148925781 399.2588806152344 C 323.3709411621094 397.5777282714844 327.2048645019531 395.4969787597656 330.7914428710938 393.0732116699219 C 331.1871948242188 392.8058776855469 331.5802917480469 392.5340576171875 331.970703125 392.2579650878906 L 539.8901977539062 512.2998046875 C 554.717041015625 520.8606567382812 573.67626953125 515.7801513671875 582.2369995117188 500.9535522460938 L 582.5097045898438 500.4810485839844 C 591.070556640625 485.6535339355469 585.9900512695312 466.6941223144531 571.1625366210938 458.1342163085938 L 360.3614501953125 336.4273681640625 C 360.2335205078125 327.730712890625 358.4640197753906 319.2935485839844 355.0967712402344 311.3325500488281 C 353.4165344238281 307.3590393066406 351.335693359375 303.5249633789062 348.9120178222656 299.9367065429688 C 346.5126037597656 296.3861999511719 343.7567749023438 293.0453796386719 340.7201843261719 290.0087890625 C 337.6853637695312 286.97314453125 334.3446044921875 284.21728515625 330.7914428710938 281.8170471191406 C 328.7850341796875 280.4613037109375 326.7003479003906 279.2126159667969 324.5570983886719 278.0809631347656 L 324.5570983886719 31.00054740905762 C 324.5570983886719 13.87979793548584 310.6772766113281 4.785156124853529e-05 293.5566101074219 4.785156124853529e-05 L 293.0111999511719 4.785156124853529e-05 C 275.8896179199219 4.785156124853529e-05 262.0106811523438 13.87979793548584 262.0106811523438 31.00054740905762 L 262.0106811523438 278.0804748535156 C 259.8671875 279.2122192382812 257.7821044921875 280.4611206054688 255.7755279541016 281.8170471191406 C 252.2241058349609 284.2155456542969 248.8842010498047 286.9722290039062 245.8476104736328 290.0087890625 C 242.81103515625 293.0436401367188 240.0551910400391 296.3843688964844 237.6549530029297 299.9367065429688 C 235.231201171875 303.5241394042969 233.1504516601562 307.3581237792969 231.4701080322266 311.3325500488281 C 228.1029510498047 319.2935485839844 226.3325347900391 327.7310485839844 226.2045288085938 336.428466796875 L 15.4052791595459 458.1342163085938 C 0.5777794718742371 466.6941223144531 -4.501803874969482 485.6535339355469 4.058112621307373 500.4810485839844 L 4.331696033477783 500.9535522460938 C 10.073486328125 510.8988647460938 20.49262619018555 516.4590454101562 31.20673751831055 516.4583740234375 M 293.283935546875 320.800537109375 C 297.7299499511719 320.800537109375 301.9095153808594 322.5312194824219 305.0541076660156 325.6748962402344 C 308.1968688964844 328.8186340332031 309.9285278320312 332.9991455078125 309.9285278320312 337.4451293945312 C 309.9285278320312 339.1414794921875 309.6764526367188 340.7989501953125 309.1902770996094 342.3748779296875 C 309.1458740234375 342.4503784179688 309.1011962890625 342.5269775390625 309.0572814941406 342.6029663085938 L 308.7846069335938 343.0754699707031 C 308.0160217285156 344.4067993164062 307.3575439453125 345.7708129882812 306.8060302734375 347.1581420898438 C 306.283203125 347.8828735351562 305.6982727050781 348.5709533691406 305.0541076660156 349.2153015136719 C 301.9095153808594 352.3590393066406 297.7299499511719 354.0906372070312 293.283935546875 354.0906372070312 C 288.8370361328125 354.0906372070312 284.6565246582031 352.3590393066406 281.5137023925781 349.2153015136719 C 280.870361328125 348.5719604492188 280.2861938476562 347.8852844238281 279.7638549804688 347.1617126464844 C 279.2121887207031 345.7733764648438 278.5531921386719 344.4076232910156 277.7841186523438 343.0754699707031 L 277.5105285644531 342.6029663085938 C 277.4661254882812 342.526123046875 277.4206848144531 342.4482116699219 277.3757019042969 342.3717956542969 C 276.8901062011719 340.796875 276.6383666992188 339.140380859375 276.6383666992188 337.4451293945312 C 276.6383666992188 332.9991455078125 278.3700256347656 328.8186340332031 281.5137023925781 325.6748962402344 C 284.6565246582031 322.5312194824219 288.8370361328125 320.800537109375 293.283935546875 320.800537109375 M 555.3613891601562 524.4583740234375 L 555.361083984375 516.4583740234375 L 555.3613891601562 524.4583740234375 C 548.5498046875 524.4586181640625 541.8165893554688 522.64990234375 535.8899536132812 519.2279052734375 L 332.2349243164062 401.6481628417969 C 329.1189575195312 403.5417175292969 325.8613891601562 405.2105102539062 322.5131225585938 406.6268005371094 C 313.2503662109375 410.5446166992188 303.4162902832031 412.5311279296875 293.283935546875 412.5311279296875 C 283.1510314941406 412.5311279296875 273.3166198730469 410.5446166992188 264.0540161132812 406.6268920898438 C 260.7059936523438 405.210693359375 257.4485168457031 403.5419616699219 254.3325347900391 401.6484069824219 L 50.6776123046875 519.22802734375 C 44.75211334228516 522.6493530273438 38.01927947998047 524.4580688476562 31.20719528198242 524.4583740234375 C 17.30269622802734 524.459228515625 4.349862575531006 516.9853515625 -2.596553802490234 504.9534606933594 C -8.078554153442383 495.4588928222656 -9.462137222290039 484.9488830566406 -6.765970706939697 474.8868103027344 C -4.069803714752197 464.82421875 2.38369607925415 456.4142150878906 11.4055290222168 451.2058715820312 L 218.4132690429688 331.689208984375 C 219.0249633789062 323.5867919921875 220.9320983886719 315.7109680175781 224.1020355224609 308.2161254882812 C 225.9833679199219 303.7663879394531 228.3131103515625 299.4736328125 231.0261077880859 295.4580383300781 C 233.7142028808594 291.4797058105469 236.7981109619141 287.7426452636719 240.1923675537109 284.3503112792969 C 243.5900268554688 280.95263671875 247.3271179199219 277.8692016601562 251.2981109619141 275.1873779296875 C 252.1887512207031 274.5855102539062 253.0933532714844 274.00244140625 254.0106964111328 273.438720703125 L 254.0106964111328 31.00054740905762 C 254.0106964111328 9.495631217956543 271.5062866210938 -7.99995231628418 293.0111999511719 -7.99995231628418 C 315.0615234375 -7.99995231628418 332.5570983886719 9.495631217956543 332.5570983886719 31.00054740905762 L 332.5570983886719 273.4393005371094 C 333.4743957519531 274.0030212402344 334.3793640136719 274.5863342285156 335.2704467773438 275.1884765625 C 339.2466125488281 277.8744506835938 342.9840393066406 280.9579772949219 346.3778686523438 284.3527221679688 C 349.7712097167969 287.7461242675781 352.8541870117188 291.4824523925781 355.5403747558594 295.4573059082031 C 358.2541809082031 299.4751281738281 360.5837097167969 303.7675476074219 362.4651184082031 308.216796875 C 365.6343994140625 315.7097473144531 367.5412292480469 323.5853576660156 368.1528015136719 331.6881713867188 L 575.1625366210938 451.2060546875 C 584.1842041015625 456.4142150878906 590.6377563476562 464.82421875 593.3341064453125 474.8866271972656 C 596.0304565429688 484.9490356445312 594.6467895507812 495.459228515625 589.4378662109375 504.4811401367188 C 582.21875 516.9841918945312 569.2659301757812 524.4579467773438 555.3613891601562 524.4583740234375 Z M 286.7320251464844 343.0875244140625 C 286.871826171875 343.2489013671875 287.0180358886719 343.4059753417969 287.1705322265625 343.5584716796875 C 288.8032836914062 345.1916198730469 290.97412109375 346.0906372070312 293.283935546875 346.0906372070312 C 295.5928649902344 346.0906372070312 297.7641906738281 345.1910400390625 299.3980407714844 343.5577087402344 C 299.5498352050781 343.4058837890625 299.6956787109375 343.2491149902344 299.8352355957031 343.087890625 C 300.4236145019531 341.731689453125 301.0950927734375 340.39501953125 301.8517150878906 339.0836181640625 C 301.8068542480469 339.142578125 301.9284973144531 338.301513671875 301.9285278320312 337.4451293945312 C 301.9285278320312 335.1357116699219 301.0292663574219 332.9642028808594 299.3963623046875 331.330810546875 C 297.7647705078125 329.6997985839844 295.5934448242188 328.800537109375 293.283935546875 328.800537109375 C 290.9735412597656 328.800537109375 288.8026123046875 329.69921875 287.1712646484375 331.3309631347656 C 285.5376892089844 332.9646301269531 284.6383666992188 335.1358032226562 284.6383666992188 337.4451293945312 C 284.6383666992188 338.0788269042969 284.7046508789062 338.7032165527344 284.8359680175781 339.3095092773438 C 285.6433410644531 340.7572937011719 286.2353820800781 341.9496154785156 286.7320251464844 343.0875244140625 Z" stroke="none" fill="#fff"/>
    </g>
  </g>
</svg>
