<svg xmlns="http://www.w3.org/2000/svg" width="185.738" height="185.738" viewBox="0 0 185.738 185.738">
  <g id="_8666699_sun_icon" data-name="8666699_sun_icon" transform="translate(0 185.738) rotate(-90)" opacity="0.282">
    <path id="Ellipse_29" data-name="Ellipse 29" d="M45.435-1A46.435,46.435,0,1,1-1,45.435,46.487,46.487,0,0,1,45.435-1Zm0,77.391A30.956,30.956,0,1,0,14.478,45.435,30.991,30.991,0,0,0,45.435,76.391Z" transform="translate(47.435 47.435)" fill="#ffba00"/>
    <path id="Line_1" data-name="Line 1" d="M6.739,29.956A7.739,7.739,0,0,1-1,22.217V6.739a7.739,7.739,0,0,1,15.478,0V22.217A7.739,7.739,0,0,1,6.739,29.956Z" transform="translate(86.13 1)" fill="#ffba00"/>
    <path id="Line_2" data-name="Line 2" d="M6.739,29.956A7.739,7.739,0,0,1-1,22.217V6.739a7.739,7.739,0,0,1,15.478,0V22.217A7.739,7.739,0,0,1,6.739,29.956Z" transform="translate(86.13 155.782)" fill="#ffba00"/>
    <path id="Line_3" data-name="Line 3" d="M17.729,25.468A7.715,7.715,0,0,1,12.256,23.2L1.267,12.211A7.739,7.739,0,0,1,12.211,1.267L23.2,12.256a7.739,7.739,0,0,1-5.472,13.211Z" transform="translate(25.92 25.92)" fill="#ffba00"/>
    <path id="Line_4" data-name="Line 4" d="M17.729,25.468A7.715,7.715,0,0,1,12.256,23.2L1.267,12.211A7.739,7.739,0,0,1,12.211,1.267L23.2,12.256a7.739,7.739,0,0,1-5.472,13.211Z" transform="translate(135.351 135.351)" fill="#ffba00"/>
    <path id="Line_5" data-name="Line 5" d="M22.217,14.478H6.739A7.739,7.739,0,0,1,6.739-1H22.217a7.739,7.739,0,0,1,0,15.478Z" transform="translate(1 86.13)" fill="#ffba00"/>
    <path id="Line_6" data-name="Line 6" d="M22.217,14.478H6.739A7.739,7.739,0,0,1,6.739-1H22.217a7.739,7.739,0,0,1,0,15.478Z" transform="translate(155.782 86.13)" fill="#ffba00"/>
    <path id="Line_7" data-name="Line 7" d="M6.739,25.468A7.739,7.739,0,0,1,1.267,12.256L12.256,1.267A7.739,7.739,0,0,1,23.2,12.211L12.211,23.2A7.715,7.715,0,0,1,6.739,25.468Z" transform="translate(25.92 135.351)" fill="#ffba00"/>
    <path id="Line_8" data-name="Line 8" d="M6.739,25.468A7.739,7.739,0,0,1,1.267,12.256L12.256,1.267A7.739,7.739,0,0,1,23.2,12.211L12.211,23.2A7.715,7.715,0,0,1,6.739,25.468Z" transform="translate(135.351 25.92)" fill="#ffba00"/>
  </g>
</svg>
