<svg xmlns="http://www.w3.org/2000/svg" width="157.355" height="230.355" viewBox="0 0 157.355 230.355">
  <g id="_6593728_farm_garden_tree_icon" data-name="6593728_farm_garden_tree_icon" transform="translate(0)" opacity="0.414">
    <path id="Path_41" data-name="Path 41" d="M82.677,3a45.947,45.947,0,0,1,45.9,45.9V62.533a39.336,39.336,0,0,1-6.556,78.152H43.339a39.335,39.335,0,0,1-6.556-78.152V48.9A45.947,45.947,0,0,1,82.677,3Zm39.339,124.573a26.226,26.226,0,0,0,0-52.452,6.556,6.556,0,0,1-6.556-6.556V48.9a32.782,32.782,0,1,0-65.565,0V68.565a6.556,6.556,0,0,1-6.556,6.556,26.226,26.226,0,0,0,0,52.452Z" transform="translate(-4 -3)" fill="#37c964"/>
    <path id="Path_42" data-name="Path 42" d="M54.9,114.347a6.557,6.557,0,0,1-6.556-6.556V50.749A21.974,21.974,0,0,0,38.8,32.6q-.088-.059-.174-.12c-3.217-2.3-7.006-3.368-11.925-3.368H15.556a6.556,6.556,0,0,1,0-13.113H26.7c7.638,0,14,1.88,19.46,5.749a35.239,35.239,0,0,1,15.29,29V107.79A6.557,6.557,0,0,1,54.9,114.347Z" transform="translate(23.782 69.234)" fill="#37c964"/>
    <path id="Line_1" data-name="Line 1" d="M5.556,77.678A6.556,6.556,0,0,1-1,71.121V5.556a6.556,6.556,0,1,1,13.113,0V71.121A6.556,6.556,0,0,1,5.556,77.678Z" transform="translate(73.121 33.782)" fill="#37c964"/>
    <path id="Line_1-2" data-name="Line 1" d="M5.556,77.678A6.556,6.556,0,0,1-1,71.121V5.556a6.556,6.556,0,1,1,13.113,0V71.121A6.556,6.556,0,0,1,5.556,77.678Z" transform="translate(73.121 152.678)" fill="#37c964"/>
    <path id="Path_43" data-name="Path 43" d="M24.179,48.783H21.556a6.556,6.556,0,0,1,0-13.113h2.623c12.949,0,24.6-6.211,31.173-16.614a6.556,6.556,0,1,1,11.087,7C57.452,40.288,41.654,48.783,24.179,48.783Z" transform="translate(57.121 69.233)" fill="#37c964"/>
  </g>
</svg>
