<svg xmlns="http://www.w3.org/2000/svg" width="109.399" height="160.152" viewBox="0 0 109.399 160.152">
  <g id="_6593728_farm_garden_tree_icon" data-name="6593728_farm_garden_tree_icon" opacity="0.414">
    <path id="Path_41" data-name="Path 41" d="M58.7,3A31.944,31.944,0,0,1,90.608,34.908V44.39a27.348,27.348,0,0,1-4.558,54.334H31.35A27.347,27.347,0,0,1,26.791,44.39V34.908A31.944,31.944,0,0,1,58.7,3Zm27.35,86.608a18.233,18.233,0,0,0,0-36.466,4.558,4.558,0,0,1-4.558-4.558V34.908a22.791,22.791,0,1,0-45.583,0V48.583a4.558,4.558,0,0,1-4.558,4.558,18.233,18.233,0,0,0,0,36.466Z" transform="translate(-4 -3)" fill="#37c964"/>
    <path id="Path_42" data-name="Path 42" d="M40.908,84.375a4.558,4.558,0,0,1-4.558-4.558V40.159a15.277,15.277,0,0,0-6.631-12.617l-.121-.084a13.609,13.609,0,0,0-8.29-2.342H13.558a4.558,4.558,0,0,1,0-9.117h7.749a22.579,22.579,0,0,1,13.529,4,24.5,24.5,0,0,1,10.63,20.162V79.816A4.558,4.558,0,0,1,40.908,84.375Z" transform="translate(13.791 43.258)" fill="#37c964"/>
    <path id="Line_1" data-name="Line 1" d="M3.558,53.7A4.558,4.558,0,0,1-1,49.141V3.558a4.558,4.558,0,1,1,9.117,0V49.141A4.558,4.558,0,0,1,3.558,53.7Z" transform="translate(51.141 23.792)" fill="#37c964"/>
    <path id="Line_1-2" data-name="Line 1" d="M3.558,53.7A4.558,4.558,0,0,1-1,49.141V3.558a4.558,4.558,0,1,1,9.117,0V49.141A4.558,4.558,0,0,1,3.558,53.7Z" transform="translate(51.141 106.452)" fill="#37c964"/>
    <path id="Path_43" data-name="Path 43" d="M21.382,38.792H19.558a4.558,4.558,0,0,1,0-9.117h1.823A25.322,25.322,0,0,0,43.054,18.125a4.558,4.558,0,1,1,7.708,4.868A34.388,34.388,0,0,1,21.382,38.792Z" transform="translate(35.141 43.257)" fill="#37c964"/>
  </g>
</svg>
