<svg xmlns="http://www.w3.org/2000/svg" width="218.798" height="320.304" viewBox="0 0 218.798 320.304">
  <g id="_6593728_farm_garden_tree_icon" data-name="6593728_farm_garden_tree_icon" transform="translate(0 0)" opacity="0.414">
    <path id="Path_41" data-name="Path 41" d="M113.4,3a63.889,63.889,0,0,1,63.816,63.816V85.78A54.7,54.7,0,0,1,168.1,194.449H58.7A54.694,54.694,0,0,1,49.583,85.78V66.816A63.889,63.889,0,0,1,113.4,3Zm54.7,173.216a36.466,36.466,0,0,0,0-72.933,9.117,9.117,0,0,1-9.117-9.117V66.816a45.583,45.583,0,1,0-91.166,0v27.35a9.117,9.117,0,0,1-9.117,9.117,36.466,36.466,0,0,0,0,72.933Z" transform="translate(-4 -3)" fill="#37c964"/>
    <path id="Path_42" data-name="Path 42" d="M72.816,152.749a9.117,9.117,0,0,1-9.117-9.117V64.318A30.555,30.555,0,0,0,50.438,39.084q-.122-.081-.242-.167c-4.473-3.2-9.742-4.683-16.581-4.683h-15.5a9.117,9.117,0,0,1,0-18.233h15.5c10.621,0,19.473,2.615,27.058,7.994a49,49,0,0,1,21.26,40.324v79.314A9.117,9.117,0,0,1,72.816,152.749Z" transform="translate(36.583 102.516)" fill="#37c964"/>
    <path id="Line_1" data-name="Line 1" d="M8.117,108.4A9.117,9.117,0,0,1-1,99.283V8.117a9.117,9.117,0,1,1,18.233,0V99.283A9.117,9.117,0,0,1,8.117,108.4Z" transform="translate(101.283 46.583)" fill="#37c964"/>
    <path id="Line_1-2" data-name="Line 1" d="M8.117,108.4A9.117,9.117,0,0,1-1,99.283V8.117a9.117,9.117,0,1,1,18.233,0V99.283A9.117,9.117,0,0,1,8.117,108.4Z" transform="translate(101.283 211.904)" fill="#37c964"/>
    <path id="Path_43" data-name="Path 43" d="M27.763,61.584H24.117a9.117,9.117,0,0,1,0-18.233h3.647c18.005,0,34.209-8.636,43.345-23.1a9.117,9.117,0,1,1,15.416,9.736C74.028,49.772,52.061,61.584,27.763,61.584Z" transform="translate(85.283 102.515)" fill="#37c964"/>
  </g>
</svg>
